<svg xmlns="http://www.w3.org/2000/svg" viewBox="0 0 450 128"><defs><style>.a{fill:#d33025;}</style></defs><rect class="b" x="38" width="4" height="10"/><rect class="b" x="15" y="8" width="50" height="4"/><path class="b" d="M210,397a22,22,0,1,1,22-22A22,22,0,0,1,210,397Zm0-40a18,18,0,1,0,18,18A18,18,0,0,0,210,357Z" transform="translate(-170 -337)"/><path class="b" d="M238,465a22,22,0,1,1,22-22A22,22,0,0,1,238,465Zm0-40a18,18,0,1,0,18,18A18,18,0,0,0,238,425Z" transform="translate(-170 -337)"/><rect class="b" x="38" y="56" width="4" height="20"/><rect class="b" y="74" width="60" height="4"/><polygon class="b" points="420 91.5 370 91.5 370 50 406 50 406 21.5 370 21.5 370 17.5 410 17.5 410 54 374 54 374 87.5 420 87.5 420 91.5"/><rect class="b" x="446" y="8" width="4" height="110"/><polygon class="a" points="290 103 240 103 240 99 286 99 286 53 290 53 290 103"/><polygon class="a" points="326.44 62.45 288 14.4 249.56 62.45 246.44 59.95 288 8 329.56 59.95 326.44 62.45"/><rect class="b" x="178" y="8" width="4" height="60"/><polygon class="b" points="200 126 196 126 196 88 158 88 158 84 200 84 200 126"/><path class="b" d="M302,397a22,22,0,1,1,22-22A22,22,0,0,1,302,397Zm0-40a18,18,0,1,0,18,18A18,18,0,0,0,302,357Z" transform="translate(-170 -337)"/></svg>
